<svg id="Layer_1" data-name="Layer 1" xmlns="http://www.w3.org/2000/svg" viewBox="0 0 512 512"><defs><style>.cls-1{fill:#5b84b1;}.cls-2{fill:#fff;}</style></defs><circle class="cls-1" cx="256" cy="256" r="256"/><path class="cls-2" d="M302.55,169.43V189h79.12V169.43ZM103.33,159.19l91.23.93s50.27-2.8,56.79,37.23-25.14,49.34-25.14,49.34,39.1,9.31,34.44,54.92c-5.58,46.55-59.57,46.55-59.57,46.55H103.33Zm41,75.4h37.24a44,44,0,0,0,14-1.86c1.86-.93,6.52-1.86,9.31-4.66a22,22,0,0,0,4.65-8.38c.94-3.72,1.87-7.44,1.87-9.3a26.89,26.89,0,0,0-1.87-8.38c-.93-2.8-2.79-4.66-4.65-6.52a18,18,0,0,0-8.38-4.65h-51.2v43.75Zm0,79.13h41c2.79,0,9.31,0,14.9-1.87,2.79-.93,7.44-1.86,10.24-5.58A33.2,33.2,0,0,0,216,297c1.86-3.72,1.86-8.38,1.86-10.24a27.57,27.57,0,0,0-1.86-9.31,14.53,14.53,0,0,0-5.58-7.45c-2.8-1.86-5.59-3.72-9.31-4.65a55.06,55.06,0,0,0-13-1.86l-43.75,1.86Zm166.63-25.14c0,.93,0,27.93,22.35,34.45,26.06,7.44,37.23-14,38.16-16.76H405c-.94,3.72-14.9,59.58-89.37,41.89C270,337,271.83,283,271.83,278.34s0-27,18.61-48.41,44.69-21.41,50.27-21.41,32.58,0,49.34,18.62c21.41,24.21,17.69,62.37,17.69,62.37Zm59.58-23.27a25.76,25.76,0,0,0-2.79-12.1,79.67,79.67,0,0,0-5.59-9.31,33.34,33.34,0,0,0-9.31-6.52c-3.72-1.86-7.44-1.86-12.1-1.86a24.83,24.83,0,0,0-11.17,2.79,32.67,32.67,0,0,0-15.82,15.83c-1.87,3.72-.93,6.51-1.87,11.17Z"/></svg>