<svg id="Layer_1" data-name="Layer 1" xmlns="http://www.w3.org/2000/svg" viewBox="0 0 502.56 501.41"><defs><style>.cls-1{fill:#e2716f;}</style></defs><path class="cls-1" d="M242.45,174.35c-41.57-74-86.59-136-93-144.94A251.53,251.53,0,0,0,10.23,204.89C21.49,205.12,124.85,205.58,242.45,174.35Z" transform="translate(-4.72 -5.53)"/><path class="cls-1" d="M4.72,256.11A251,251,0,0,0,69.49,424c5.75-9.65,74.65-123.58,204.2-165.61,3.21-1.15,6.66-2.07,9.87-3-6.2-14.24-13.09-28.49-20.44-42.5C137.71,250.37,16,248.76,5,248.54,5,251.06,4.72,253.59,4.72,256.11Z" transform="translate(-4.72 -5.53)"/><path class="cls-1" d="M422.52,68.69A250.33,250.33,0,0,0,256,5.53a260.38,260.38,0,0,0-58.8,6.89c6.89,9.18,52.6,71.2,93.71,146.77C380.26,125.65,417.93,75.12,422.52,68.69Z" transform="translate(-4.72 -5.53)"/><path class="cls-1" d="M450.32,97.63c-5.29,7.12-47.32,61.1-140.11,99,5.74,11.94,11.48,24.11,16.76,36.29,1.84,4.36,3.68,8.72,5.52,12.86,83.6-10.57,166.52,6.43,174.79,8A249.81,249.81,0,0,0,450.32,97.63Z" transform="translate(-4.72 -5.53)"/><path class="cls-1" d="M347.42,285.29c32.84,90,46.16,163.53,48.69,178.69,56.5-37.9,96.7-98.07,107.72-167.9C495.33,293.32,426.2,272.88,347.42,285.29Z" transform="translate(-4.72 -5.53)"/><path class="cls-1" d="M354.08,487.18C350.4,465.13,335.7,388.41,300.56,297a4.26,4.26,0,0,1-1.61.46C157.23,346.84,106.47,444.92,101.88,454.11A250.15,250.15,0,0,0,256,506.93,245.39,245.39,0,0,0,354.08,487.18Z" transform="translate(-4.72 -5.53)"/></svg>